<svg width="244" height="208" viewBox="0 0 244 208" fill="none" xmlns="http://www.w3.org/2000/svg">
<rect width="244" height="208" fill="#29292E"/>
<g clip-path="url(#clip0_14087_1115)">
<path fill-rule="evenodd" clip-rule="evenodd" d="M101.96 138.376H72.5913V142.02H101.96V138.376ZM101.96 145.858H72.5913V149.503H101.96V145.858ZM72.5913 153.341H101.96V156.985H72.5913V153.341Z" fill="#E1E1E6"/>
<path fill-rule="evenodd" clip-rule="evenodd" d="M142.528 138.376H171.897V142.02H142.528V138.376ZM158.834 156.985V144.653L158.673 144.733L155.751 146.192V156.985H158.834Z" fill="#E1E1E6"/>
<path fill-rule="evenodd" clip-rule="evenodd" d="M177.895 138.528L188.737 143.932L184.799 145.896L177.586 142.302V138.376L177.895 138.528ZM206.955 153.014V156.939L195.834 151.399L199.768 149.434L206.955 153.014ZM206.955 142.305V138.38L206.65 138.528L192.285 145.699H192.282L188.348 147.667L177.586 153.037V156.966L192.285 149.628L196.219 147.663L206.955 142.305Z" fill="#DC1637"/>
<path d="M39.0825 157H36V153.721C36.0017 149.655 37.368 145.756 39.7991 142.879C42.2301 140.003 45.5272 138.385 48.9664 138.38H66.9118V142.024H48.9664C46.3466 142.028 43.8351 143.26 41.9823 145.45C40.1296 147.639 39.0868 150.608 39.0825 153.705V157Z" fill="#E1E1E6"/>
<path fill-rule="evenodd" clip-rule="evenodd" d="M108.953 138.374H105.937V139.247L105.936 139.25C105.936 139.535 105.936 139.86 105.936 140.185V140.186V140.186V140.186V140.186C105.935 140.835 105.935 141.482 105.936 141.8V157H109.019V142.663L111.669 144.045L135.327 156.979V156.985H135.338L135.366 157H138.411V154.066L138.409 154.065V147.587L138.404 147.59V138.38H135.321V152.472L133.362 151.467L108.953 138.374Z" fill="#E1E1E6"/>
</g>
<path fill-rule="evenodd" clip-rule="evenodd" d="M105.634 58.4027L55.4289 33.695L54 33V50.9487L87.4009 67.3857L105.634 58.4027ZM190 117.879V99.9302L156.718 83.5626L138.499 92.5457L190 117.879ZM188.586 33.6946L190 33.017V50.9657L140.286 75.4649L122.067 84.4479L54 118V100.034L103.833 75.4823L122.052 66.4818H122.067L188.586 33.6946Z" fill="#DC1637"/>
<defs>
<clipPath id="clip0_14087_1115">
<rect width="171" height="19" fill="white" transform="translate(36 138)"/>
</clipPath>
</defs>
</svg>
